<svg xmlns="http://www.w3.org/2000/svg" xmlns:xlink="http://www.w3.org/1999/xlink" width="160.779" height="121.807" viewBox="0 0 160.779 121.807">
  <defs>
  <!-- test -->
    <clipPath id="clip-path">
      <path id="Tracé_178" data-name="Tracé 178" d="M-195.781,2579.36a37.537,37.537,0,0,1-37.5-37.5,37.538,37.538,0,0,1,37.5-37.5,37.537,37.537,0,0,1,37.494,37.5A37.537,37.537,0,0,1-195.781,2579.36Z" transform="translate(233.276 -2504.369)" fill="none"/>
    </clipPath>
  </defs>
  <g id="Groupe_200" data-name="Groupe 200" transform="translate(234.276 -2503.369)">
    <g id="Groupe_147" data-name="Groupe 147" transform="translate(-228.864 2527.191)">
      <g id="Groupe_106" data-name="Groupe 106">
        <g id="Groupe_105" data-name="Groupe 105">
          <g id="Groupe_104" data-name="Groupe 104">
            <g id="Groupe_102" data-name="Groupe 102">
              <path id="Tracé_93" data-name="Tracé 93" d="M-72.325,2619.428c0-.016-.009-.031-.014-.046a.957.957,0,0,0-.06-.122,1.2,1.2,0,0,0-.391-.491L-94.24,2606.83a1.213,1.213,0,0,0-.71-.228h-1.267a1.66,1.66,0,0,0,1.66-1.661v-70.7a1.66,1.66,0,0,0-1.66-1.66H-207.037a1.66,1.66,0,0,0-1.66,1.66v70.7a1.66,1.66,0,0,0,1.66,1.661h-1.294a1.21,1.21,0,0,0-.671.2l-18.091,11.939a1.175,1.175,0,0,0-.5.7.945.945,0,0,0-.046.278v9.889a.949.949,0,0,0,.949.949H-73.223a.949.949,0,0,0,.949-.949v-9.889A.93.93,0,0,0-72.325,2619.428Z" transform="translate(227.64 -2532.576)" fill="#fbfafa"/>
            </g>
            <g id="Groupe_103" data-name="Groupe 103" transform="translate(23.298 4.53)">
              <rect id="Rectangle_380" data-name="Rectangle 380" width="105.43" height="64.965" fill="#1a1e31"/>
            </g>
          </g>
        </g>
      </g>
      <g id="Groupe_107" data-name="Groupe 107" transform="translate(76.878 53.16)">
        <path id="Tracé_94" data-name="Tracé 94" d="M-90.045,2599.147h-42.642a.7.7,0,0,1-.7-.7.7.7,0,0,1,.7-.7h42.642a.7.7,0,0,1,.7.7A.7.7,0,0,1-90.045,2599.147Z" transform="translate(133.383 -2597.753)" fill="#1afbe5"/>
      </g>
      <g id="Groupe_108" data-name="Groupe 108" transform="translate(95.512 35.18)">
        <path id="Tracé_95" data-name="Tracé 95" d="M-85.833,2577.1H-109.84a.7.7,0,0,1-.7-.7.7.7,0,0,1,.7-.7h24.007a.7.7,0,0,1,.7.7A.7.7,0,0,1-85.833,2577.1Z" transform="translate(110.537 -2575.708)" fill="#ff09d6"/>
      </g>
      <g id="Groupe_109" data-name="Groupe 109" transform="translate(61.002 57.653)">
        <path id="Tracé_96" data-name="Tracé 96" d="M-122.627,2604.656h-29.524a.7.7,0,0,1-.7-.7.7.7,0,0,1,.7-.7h29.524a.7.7,0,0,1,.7.7A.7.7,0,0,1-122.627,2604.656Z" transform="translate(152.848 -2603.262)" fill="#ff09d6"/>
      </g>
      <g id="Groupe_110" data-name="Groupe 110" transform="translate(47.885 53.16)">
        <path id="Tracé_97" data-name="Tracé 97" d="M-144.227,2599.147h-24.008a.7.7,0,0,1-.7-.7.7.7,0,0,1,.7-.7h24.008a.7.7,0,0,1,.7.7A.7.7,0,0,1-144.227,2599.147Z" transform="translate(168.931 -2597.753)" fill="#1d15aa"/>
      </g>
      <g id="Groupe_111" data-name="Groupe 111" transform="translate(61.002 48.666)">
        <path id="Tracé_98" data-name="Tracé 98" d="M-122.627,2593.637h-29.524a.7.7,0,0,1-.7-.7.7.7,0,0,1,.7-.7h29.524a.7.7,0,0,1,.7.7A.7.7,0,0,1-122.627,2593.637Z" transform="translate(152.848 -2592.243)" fill="#faf44a"/>
      </g>
      <g id="Groupe_112" data-name="Groupe 112" transform="translate(47.885 26.194)">
        <path id="Tracé_99" data-name="Tracé 99" d="M-125.593,2566.085h-42.642a.7.7,0,0,1-.7-.7.7.7,0,0,1,.7-.7h42.642a.7.7,0,0,1,.7.7A.7.7,0,0,1-125.593,2566.085Z" transform="translate(168.931 -2564.691)" fill="#15f8a2"/>
      </g>
      <g id="Groupe_113" data-name="Groupe 113" transform="translate(29.25 17.207)">
        <path id="Tracé_100" data-name="Tracé 100" d="M-164.315,2555.066h-26.766a.7.7,0,0,1-.7-.7.7.7,0,0,1,.7-.7h26.766a.7.7,0,0,1,.7.7A.7.7,0,0,1-164.315,2555.066Z" transform="translate(191.778 -2553.672)" fill="#f60000"/>
      </g>
      <g id="Groupe_114" data-name="Groupe 114" transform="translate(61.002 17.207)">
        <path id="Tracé_101" data-name="Tracé 101" d="M-122.627,2555.066h-29.524a.7.7,0,0,1-.7-.7.7.7,0,0,1,.7-.7h29.524a.7.7,0,0,1,.7.7A.7.7,0,0,1-122.627,2555.066Z" transform="translate(152.848 -2553.672)" fill="#1afbe5"/>
      </g>
      <g id="Groupe_115" data-name="Groupe 115" transform="translate(47.885 8.22)">
        <path id="Tracé_102" data-name="Tracé 102" d="M-125.593,2544.048h-42.642a.7.7,0,0,1-.7-.7.7.7,0,0,1,.7-.7h42.642a.7.7,0,0,1,.7.7A.7.7,0,0,1-125.593,2544.048Z" transform="translate(168.931 -2542.655)" fill="#15f8a2"/>
      </g>
      <g id="Groupe_116" data-name="Groupe 116" transform="translate(29.25 12.713)">
        <path id="Tracé_103" data-name="Tracé 103" d="M-177.433,2549.557h-13.648a.7.7,0,0,1-.7-.7.7.7,0,0,1,.7-.7h13.648a.7.7,0,0,1,.7.7A.7.7,0,0,1-177.433,2549.557Z" transform="translate(191.778 -2548.163)" fill="#645cf7"/>
      </g>
      <g id="Groupe_117" data-name="Groupe 117" transform="translate(29.25 21.7)">
        <path id="Tracé_104" data-name="Tracé 104" d="M-177.433,2560.575h-13.648a.7.7,0,0,1-.7-.7.7.7,0,0,1,.7-.7h13.648a.7.7,0,0,1,.7.7A.7.7,0,0,1-177.433,2560.575Z" transform="translate(191.778 -2559.181)" fill="#ff09d6"/>
      </g>
      <g id="Groupe_118" data-name="Groupe 118" transform="translate(47.885 12.713)">
        <path id="Tracé_105" data-name="Tracé 105" d="M-160.1,2549.557h-8.132a.7.7,0,0,1-.7-.7.7.7,0,0,1,.7-.7h8.132a.7.7,0,0,1,.7.7A.7.7,0,0,1-160.1,2549.557Z" transform="translate(168.931 -2548.163)" fill="#faf44a"/>
      </g>
      <g id="Groupe_119" data-name="Groupe 119" transform="translate(47.885 21.7)">
        <path id="Tracé_106" data-name="Tracé 106" d="M-144.227,2560.575h-24.008a.7.7,0,0,1-.7-.7.7.7,0,0,1,.7-.7h24.008a.7.7,0,0,1,.7.7A.7.7,0,0,1-144.227,2560.575Z" transform="translate(168.931 -2559.181)" fill="#645cf7"/>
      </g>
      <g id="Groupe_120" data-name="Groupe 120" transform="translate(61.002 12.713)">
        <path id="Tracé_107" data-name="Tracé 107" d="M-141.261,2549.557h-10.89a.7.7,0,0,1-.7-.7.7.7,0,0,1,.7-.7h10.89a.7.7,0,0,1,.7.7A.7.7,0,0,1-141.261,2549.557Z" transform="translate(152.848 -2548.163)" fill="#ff09d6"/>
      </g>
      <g id="Groupe_121" data-name="Groupe 121" transform="translate(61.002 30.687)">
        <path id="Tracé_108" data-name="Tracé 108" d="M-112.267,2571.594h-39.884a.7.7,0,0,1-.7-.7.7.7,0,0,1,.7-.7h39.884a.7.7,0,0,1,.7.7A.7.7,0,0,1-112.267,2571.594Z" transform="translate(152.848 -2570.2)" fill="#faf44a"/>
      </g>
      <g id="Groupe_122" data-name="Groupe 122" transform="translate(76.878 12.713)">
        <path id="Tracé_109" data-name="Tracé 109" d="M-119.039,2549.557h-13.648a.7.7,0,0,1-.7-.7.7.7,0,0,1,.7-.7h13.648a.7.7,0,0,1,.7.7A.7.7,0,0,1-119.039,2549.557Z" transform="translate(133.383 -2548.163)" fill="#faf44a"/>
      </g>
      <g id="Groupe_123" data-name="Groupe 123" transform="translate(76.878 21.7)">
        <path id="Tracé_110" data-name="Tracé 110" d="M-119.039,2560.575h-13.648a.7.7,0,0,1-.7-.7.7.7,0,0,1,.7-.7h13.648a.7.7,0,0,1,.7.7A.7.7,0,0,1-119.039,2560.575Z" transform="translate(133.383 -2559.181)" fill="#1d15aa"/>
      </g>
      <g id="Groupe_124" data-name="Groupe 124" transform="translate(76.878 35.18)">
        <path id="Tracé_111" data-name="Tracé 111" d="M-119.039,2577.1h-13.648a.7.7,0,0,1-.7-.7.7.7,0,0,1,.7-.7h13.648a.7.7,0,0,1,.7.7A.7.7,0,0,1-119.039,2577.1Z" transform="translate(133.383 -2575.708)" fill="#1d15aa"/>
      </g>
      <g id="Groupe_125" data-name="Groupe 125" transform="translate(95.512 8.22)">
        <path id="Tracé_112" data-name="Tracé 112" d="M-104.466,2544.048h-5.373a.7.7,0,0,1-.7-.7.7.7,0,0,1,.7-.7h5.373a.7.7,0,0,1,.7.7A.7.7,0,0,1-104.466,2544.048Z" transform="translate(110.537 -2542.655)" fill="#1d15aa"/>
      </g>
      <g id="Groupe_126" data-name="Groupe 126" transform="translate(95.512 12.713)">
        <path id="Tracé_113" data-name="Tracé 113" d="M-104.466,2549.557h-5.373a.7.7,0,0,1-.7-.7.7.7,0,0,1,.7-.7h5.373a.7.7,0,0,1,.7.7A.7.7,0,0,1-104.466,2549.557Z" transform="translate(110.537 -2548.163)" fill="#765af7"/>
      </g>
      <g id="Groupe_127" data-name="Groupe 127" transform="translate(95.512 17.207)">
        <path id="Tracé_114" data-name="Tracé 114" d="M-85.833,2555.066H-109.84a.7.7,0,0,1-.7-.7.7.7,0,0,1,.7-.7h24.007a.7.7,0,0,1,.7.7A.7.7,0,0,1-85.833,2555.066Z" transform="translate(110.537 -2553.672)" fill="#faf44a"/>
      </g>
      <g id="Groupe_128" data-name="Groupe 128" transform="translate(95.512 21.7)">
        <path id="Tracé_115" data-name="Tracé 115" d="M-104.466,2560.575h-5.373a.7.7,0,0,1-.7-.7.7.7,0,0,1,.7-.7h5.373a.7.7,0,0,1,.7.7A.7.7,0,0,1-104.466,2560.575Z" transform="translate(110.537 -2559.181)" fill="#f60000"/>
      </g>
      <g id="Groupe_129" data-name="Groupe 129" transform="translate(95.512 26.194)">
        <path id="Tracé_116" data-name="Tracé 116" d="M-104.466,2566.085h-5.373a.7.7,0,0,1-.7-.7.7.7,0,0,1,.7-.7h5.373a.7.7,0,0,1,.7.7A.7.7,0,0,1-104.466,2566.085Z" transform="translate(110.537 -2564.691)" fill="#faf44a"/>
      </g>
      <g id="Groupe_130" data-name="Groupe 130" transform="translate(105.871 8.22)">
        <path id="Tracé_117" data-name="Tracé 117" d="M-83.491,2544.048H-97.139a.7.7,0,0,1-.7-.7.7.7,0,0,1,.7-.7h13.648a.7.7,0,0,1,.7.7A.7.7,0,0,1-83.491,2544.048Z" transform="translate(97.836 -2542.655)" fill="#1d15aa"/>
      </g>
      <g id="Groupe_131" data-name="Groupe 131" transform="translate(105.871 12.713)">
        <path id="Tracé_118" data-name="Tracé 118" d="M-83.491,2549.557H-97.139a.7.7,0,0,1-.7-.7.7.7,0,0,1,.7-.7h13.648a.7.7,0,0,1,.7.7A.7.7,0,0,1-83.491,2549.557Z" transform="translate(97.836 -2548.163)" fill="#f60000"/>
      </g>
      <g id="Groupe_132" data-name="Groupe 132" transform="translate(105.871 21.7)">
        <path id="Tracé_119" data-name="Tracé 119" d="M-83.491,2560.575H-97.139a.7.7,0,0,1-.7-.7.7.7,0,0,1,.7-.7h13.648a.7.7,0,0,1,.7.7A.7.7,0,0,1-83.491,2560.575Z" transform="translate(97.836 -2559.181)" fill="#faf44a"/>
      </g>
      <g id="Groupe_133" data-name="Groupe 133" transform="translate(105.871 26.194)">
        <path id="Tracé_120" data-name="Tracé 120" d="M-83.491,2566.085H-97.139a.7.7,0,0,1-.7-.7.7.7,0,0,1,.7-.7h13.648a.7.7,0,0,1,.7.7A.7.7,0,0,1-83.491,2566.085Z" transform="translate(97.836 -2564.691)" fill="#ff09d6"/>
      </g>
      <g id="Groupe_134" data-name="Groupe 134" transform="translate(29.25 57.653)">
        <path id="Tracé_121" data-name="Tracé 121" d="M-177.433,2604.656h-13.648a.7.7,0,0,1-.7-.7.7.7,0,0,1,.7-.7h13.648a.7.7,0,0,1,.7.7A.7.7,0,0,1-177.433,2604.656Z" transform="translate(191.778 -2603.262)" fill="#1d15aa"/>
      </g>
      <g id="Groupe_135" data-name="Groupe 135" transform="translate(47.885 57.653)">
        <path id="Tracé_122" data-name="Tracé 122" d="M-160.1,2604.656h-8.132a.7.7,0,0,1-.7-.7.7.7,0,0,1,.7-.7h8.132a.7.7,0,0,1,.7.7A.7.7,0,0,1-160.1,2604.656Z" transform="translate(168.931 -2603.262)" fill="#f60000"/>
      </g>
      <g id="Groupe_136" data-name="Groupe 136" transform="translate(76.878 44.174)">
        <path id="Tracé_123" data-name="Tracé 123" d="M-119.039,2588.129h-13.648a.7.7,0,0,1-.7-.7.7.7,0,0,1,.7-.7h13.648a.7.7,0,0,1,.7.7A.7.7,0,0,1-119.039,2588.129Z" transform="translate(133.383 -2586.736)" fill="#645cf7"/>
      </g>
      <g id="Groupe_137" data-name="Groupe 137" transform="translate(95.512 39.679)">
        <path id="Tracé_124" data-name="Tracé 124" d="M-104.466,2582.619h-5.373a.7.7,0,0,1-.7-.7.7.7,0,0,1,.7-.7h5.373a.7.7,0,0,1,.7.7A.7.7,0,0,1-104.466,2582.619Z" transform="translate(110.537 -2581.225)" fill="#15f8a2"/>
      </g>
      <g id="Groupe_138" data-name="Groupe 138" transform="translate(95.512 44.174)">
        <path id="Tracé_125" data-name="Tracé 125" d="M-104.466,2588.129h-5.373a.7.7,0,0,1-.7-.7.7.7,0,0,1,.7-.7h5.373a.7.7,0,0,1,.7.7A.7.7,0,0,1-104.466,2588.129Z" transform="translate(110.537 -2586.736)" fill="#765af7"/>
      </g>
      <g id="Groupe_139" data-name="Groupe 139" transform="translate(95.512 57.653)">
        <path id="Tracé_126" data-name="Tracé 126" d="M-104.466,2604.656h-5.373a.7.7,0,0,1-.7-.7.7.7,0,0,1,.7-.7h5.373a.7.7,0,0,1,.7.7A.7.7,0,0,1-104.466,2604.656Z" transform="translate(110.537 -2603.262)" fill="#faf44a"/>
      </g>
      <g id="Groupe_140" data-name="Groupe 140" transform="translate(105.871 39.679)">
        <path id="Tracé_127" data-name="Tracé 127" d="M-83.491,2582.619H-97.139a.7.7,0,0,1-.7-.7.7.7,0,0,1,.7-.7h13.648a.7.7,0,0,1,.7.7A.7.7,0,0,1-83.491,2582.619Z" transform="translate(97.836 -2581.225)" fill="#faf44a"/>
      </g>
      <g id="Groupe_141" data-name="Groupe 141" transform="translate(105.871 44.174)">
        <path id="Tracé_128" data-name="Tracé 128" d="M-83.491,2588.129H-97.139a.7.7,0,0,1-.7-.7.7.7,0,0,1,.7-.7h13.648a.7.7,0,0,1,.7.7A.7.7,0,0,1-83.491,2588.129Z" transform="translate(97.836 -2586.736)" fill="#15f8a2"/>
      </g>
      <g id="Groupe_142" data-name="Groupe 142" transform="translate(105.871 57.653)">
        <path id="Tracé_129" data-name="Tracé 129" d="M-83.491,2604.656H-97.139a.7.7,0,0,1-.7-.7.7.7,0,0,1,.7-.7h13.648a.7.7,0,0,1,.7.7A.7.7,0,0,1-83.491,2604.656Z" transform="translate(97.836 -2603.262)" fill="#1d15aa"/>
      </g>
      <g id="Groupe_143" data-name="Groupe 143" transform="translate(76.878 66.641)">
        <path id="Tracé_130" data-name="Tracé 130" d="M-108.679,2615.675h-24.008a.7.7,0,0,1-.7-.7.7.7,0,0,1,.7-.7h24.008a.7.7,0,0,1,.7.7A.7.7,0,0,1-108.679,2615.675Z" transform="translate(133.383 -2614.281)" fill="#1afbe5"/>
      </g>
      <g id="Groupe_144" data-name="Groupe 144" transform="translate(95.512 62.147)">
        <path id="Tracé_131" data-name="Tracé 131" d="M-85.833,2610.165H-109.84a.7.7,0,0,1-.7-.7.7.7,0,0,1,.7-.7h24.007a.7.7,0,0,1,.7.7A.7.7,0,0,1-85.833,2610.165Z" transform="translate(110.537 -2608.771)" fill="#15f8a2"/>
      </g>
      <g id="Groupe_145" data-name="Groupe 145" transform="translate(47.885 62.147)">
        <path id="Tracé_132" data-name="Tracé 132" d="M-125.593,2610.165h-42.642a.7.7,0,0,1-.7-.7.7.7,0,0,1,.7-.7h42.642a.7.7,0,0,1,.7.7A.7.7,0,0,1-125.593,2610.165Z" transform="translate(168.931 -2608.771)" fill="#645cf7"/>
      </g>
      <g id="Groupe_146" data-name="Groupe 146" transform="translate(61.002 66.641)">
        <path id="Tracé_133" data-name="Tracé 133" d="M-141.261,2615.675h-10.89a.7.7,0,0,1-.7-.7.7.7,0,0,1,.7-.7h10.89a.7.7,0,0,1,.7.7A.7.7,0,0,1-141.261,2615.675Z" transform="translate(152.848 -2614.281)" fill="#f60000"/>
      </g>
    </g>
    <g id="Groupe_198" data-name="Groupe 198" transform="translate(-233.46 2504.184)">
      <g id="Groupe_197" data-name="Groupe 197" clip-path="url(#clip-path)">
        <g id="Groupe_196" data-name="Groupe 196" transform="translate(-14.308 10.405)">
          <g id="Groupe_152" data-name="Groupe 152">
            <g id="Groupe_151" data-name="Groupe 151">
              <g id="Groupe_150" data-name="Groupe 150">
                <g id="Groupe_148" data-name="Groupe 148">
                  <path id="Tracé_134" data-name="Tracé 134" d="M-41.848,2633.982l-.02-.06a1.157,1.157,0,0,0-.08-.165,1.583,1.583,0,0,0-.526-.661l-28.86-16.064a1.641,1.641,0,0,0-.956-.307H-74a2.234,2.234,0,0,0,2.234-2.233v-95.131A2.234,2.234,0,0,0-74,2517.126H-223.1a2.234,2.234,0,0,0-2.234,2.233v95.131a2.234,2.234,0,0,0,2.234,2.233h-1.741a1.636,1.636,0,0,0-.9.271l-24.34,16.064a1.584,1.584,0,0,0-.675.946,1.259,1.259,0,0,0-.062.374v.015a.19.19,0,0,0,0,.021v13.269a1.277,1.277,0,0,0,1.277,1.277H-43.056a1.278,1.278,0,0,0,1.278-1.277v-13.305A1.28,1.28,0,0,0-41.848,2633.982Z" transform="translate(250.818 -2517.126)" fill="#fbfafa"/>
                </g>
                <g id="Groupe_149" data-name="Groupe 149" transform="translate(31.347 6.095)">
                  <rect id="Rectangle_381" data-name="Rectangle 381" width="141.851" height="87.408" fill="#1a1e31"/>
                </g>
              </g>
            </g>
          </g>
          <g id="Groupe_153" data-name="Groupe 153" transform="translate(103.436 71.525)">
            <path id="Tracé_135" data-name="Tracé 135" d="M-65.689,2606.694h-57.373a.937.937,0,0,1-.938-.937.937.937,0,0,1,.938-.937h57.373a.937.937,0,0,1,.937.937A.937.937,0,0,1-65.689,2606.694Z" transform="translate(124 -2604.82)" fill="#1afbe5"/>
          </g>
          <g id="Groupe_154" data-name="Groupe 154" transform="translate(128.509 47.334)">
            <path id="Tracé_136" data-name="Tracé 136" d="M-60.022,2577.035h-32.3a.937.937,0,0,1-.937-.937.937.937,0,0,1,.937-.938h32.3a.938.938,0,0,1,.937.938A.937.937,0,0,1-60.022,2577.035Z" transform="translate(93.26 -2575.16)" fill="#ff09d6"/>
          </g>
          <g id="Groupe_155" data-name="Groupe 155" transform="translate(82.077 77.571)">
            <path id="Tracé_137" data-name="Tracé 137" d="M-109.528,2614.107h-39.723a.938.938,0,0,1-.937-.938.937.937,0,0,1,.937-.937h39.723a.937.937,0,0,1,.938.937A.938.938,0,0,1-109.528,2614.107Z" transform="translate(150.188 -2612.232)" fill="#ff09d6"/>
          </g>
          <g id="Groupe_156" data-name="Groupe 156" transform="translate(64.427 71.525)">
            <path id="Tracé_138" data-name="Tracé 138" d="M-138.59,2606.694h-32.3a.937.937,0,0,1-.938-.937.937.937,0,0,1,.938-.937h32.3a.937.937,0,0,1,.938.937A.937.937,0,0,1-138.59,2606.694Z" transform="translate(171.828 -2604.82)" fill="#1d15aa"/>
          </g>
          <g id="Groupe_157" data-name="Groupe 157" transform="translate(82.077 65.479)">
            <path id="Tracé_139" data-name="Tracé 139" d="M-109.528,2599.282h-39.723a.937.937,0,0,1-.937-.937.937.937,0,0,1,.937-.937h39.723a.938.938,0,0,1,.938.937A.938.938,0,0,1-109.528,2599.282Z" transform="translate(150.188 -2597.407)" fill="#faf44a"/>
          </g>
          <g id="Groupe_158" data-name="Groupe 158" transform="translate(64.427 35.242)">
            <path id="Tracé_140" data-name="Tracé 140" d="M-113.518,2562.21H-170.89a.938.938,0,0,1-.938-.937.938.938,0,0,1,.938-.938h57.372a.938.938,0,0,1,.938.938A.938.938,0,0,1-113.518,2562.21Z" transform="translate(171.828 -2560.335)" fill="#15f8a2"/>
          </g>
          <g id="Groupe_159" data-name="Groupe 159" transform="translate(39.356 23.152)">
            <path id="Tracé_141" data-name="Tracé 141" d="M-165.617,2547.386h-36.011a.938.938,0,0,1-.937-.938.937.937,0,0,1,.937-.937h36.011a.937.937,0,0,1,.937.937A.937.937,0,0,1-165.617,2547.386Z" transform="translate(202.566 -2545.511)" fill="#f60000"/>
          </g>
          <g id="Groupe_160" data-name="Groupe 160" transform="translate(82.077 23.152)">
            <path id="Tracé_142" data-name="Tracé 142" d="M-109.528,2547.386h-39.723a.938.938,0,0,1-.937-.938.937.937,0,0,1,.937-.937h39.723a.938.938,0,0,1,.938.937A.938.938,0,0,1-109.528,2547.386Z" transform="translate(150.188 -2545.511)" fill="#1afbe5"/>
          </g>
          <g id="Groupe_161" data-name="Groupe 161" transform="translate(64.427 11.06)">
            <path id="Tracé_143" data-name="Tracé 143" d="M-113.518,2532.562H-170.89a.939.939,0,0,1-.938-.938.938.938,0,0,1,.938-.937h57.372a.938.938,0,0,1,.938.937A.939.939,0,0,1-113.518,2532.562Z" transform="translate(171.828 -2530.686)" fill="#15f8a2"/>
          </g>
          <g id="Groupe_162" data-name="Groupe 162" transform="translate(39.356 17.105)">
            <path id="Tracé_144" data-name="Tracé 144" d="M-183.267,2539.973h-18.362a.938.938,0,0,1-.937-.938.938.938,0,0,1,.937-.937h18.362a.937.937,0,0,1,.937.937A.937.937,0,0,1-183.267,2539.973Z" transform="translate(202.566 -2538.098)" fill="#645cf7"/>
          </g>
          <g id="Groupe_163" data-name="Groupe 163" transform="translate(39.356 29.197)">
            <path id="Tracé_145" data-name="Tracé 145" d="M-183.267,2554.8h-18.362a.938.938,0,0,1-.937-.937.938.938,0,0,1,.937-.938h18.362a.937.937,0,0,1,.937.938A.937.937,0,0,1-183.267,2554.8Z" transform="translate(202.566 -2552.923)" fill="#ff09d6"/>
          </g>
          <g id="Groupe_164" data-name="Groupe 164" transform="translate(64.427 47.334)">
            <path id="Tracé_146" data-name="Tracé 146" d="M-138.843,2577.035H-170.89a.937.937,0,0,1-.938-.937.938.938,0,0,1,.938-.938h32.048a.938.938,0,0,1,.937.938A.937.937,0,0,1-138.843,2577.035Z" transform="translate(171.828 -2575.16)" fill="#ff09d6"/>
          </g>
          <g id="Groupe_165" data-name="Groupe 165" transform="translate(64.427 17.105)">
            <path id="Tracé_147" data-name="Tracé 147" d="M-159.95,2539.973h-10.94a.938.938,0,0,1-.938-.938.938.938,0,0,1,.938-.937h10.94a.937.937,0,0,1,.937.937A.937.937,0,0,1-159.95,2539.973Z" transform="translate(171.828 -2538.098)" fill="#faf44a"/>
          </g>
          <g id="Groupe_166" data-name="Groupe 166" transform="translate(64.427 29.197)">
            <path id="Tracé_148" data-name="Tracé 148" d="M-138.59,2554.8h-32.3a.938.938,0,0,1-.938-.937.938.938,0,0,1,.938-.938h32.3a.938.938,0,0,1,.938.938A.938.938,0,0,1-138.59,2554.8Z" transform="translate(171.828 -2552.923)" fill="#1d15aa"/>
          </g>
          <g id="Groupe_167" data-name="Groupe 167" transform="translate(82.077 17.105)">
            <path id="Tracé_149" data-name="Tracé 149" d="M-134.6,2539.973h-14.651a.938.938,0,0,1-.937-.938.938.938,0,0,1,.937-.937H-134.6a.938.938,0,0,1,.938.937A.938.938,0,0,1-134.6,2539.973Z" transform="translate(150.188 -2538.098)" fill="#ff09d6"/>
          </g>
          <g id="Groupe_168" data-name="Groupe 168" transform="translate(82.077 41.288)">
            <path id="Tracé_150" data-name="Tracé 150" d="M-95.59,2569.622h-53.661a.937.937,0,0,1-.937-.937.938.938,0,0,1,.937-.938H-95.59a.938.938,0,0,1,.938.938A.937.937,0,0,1-95.59,2569.622Z" transform="translate(150.188 -2567.747)" fill="#faf44a"/>
          </g>
          <g id="Groupe_169" data-name="Groupe 169" transform="translate(103.436 17.105)">
            <path id="Tracé_151" data-name="Tracé 151" d="M-104.7,2539.973h-18.362a.938.938,0,0,1-.938-.938.938.938,0,0,1,.938-.937H-104.7a.938.938,0,0,1,.938.937A.938.938,0,0,1-104.7,2539.973Z" transform="translate(124 -2538.098)" fill="#faf44a"/>
          </g>
          <g id="Groupe_170" data-name="Groupe 170" transform="translate(103.436 29.197)">
            <path id="Tracé_152" data-name="Tracé 152" d="M-104.7,2554.8h-18.362a.938.938,0,0,1-.938-.937.938.938,0,0,1,.938-.938H-104.7a.938.938,0,0,1,.938.938A.938.938,0,0,1-104.7,2554.8Z" transform="translate(124 -2552.923)" fill="#1d15aa"/>
          </g>
          <g id="Groupe_171" data-name="Groupe 171" transform="translate(103.436 47.334)">
            <path id="Tracé_153" data-name="Tracé 153" d="M-104.7,2577.035h-18.362a.937.937,0,0,1-.938-.937.938.938,0,0,1,.938-.938H-104.7a.938.938,0,0,1,.938.938A.937.937,0,0,1-104.7,2577.035Z" transform="translate(124 -2575.16)" fill="#1d15aa"/>
          </g>
          <g id="Groupe_172" data-name="Groupe 172" transform="translate(128.509 11.06)">
            <path id="Tracé_154" data-name="Tracé 154" d="M-85.094,2532.562h-7.229a.938.938,0,0,1-.937-.938.937.937,0,0,1,.937-.937h7.229a.938.938,0,0,1,.938.937A.939.939,0,0,1-85.094,2532.562Z" transform="translate(93.26 -2530.686)" fill="#1d15aa"/>
          </g>
          <g id="Groupe_173" data-name="Groupe 173" transform="translate(128.509 17.105)">
            <path id="Tracé_155" data-name="Tracé 155" d="M-85.094,2539.973h-7.229a.937.937,0,0,1-.937-.938.937.937,0,0,1,.937-.937h7.229a.938.938,0,0,1,.938.937A.938.938,0,0,1-85.094,2539.973Z" transform="translate(93.26 -2538.098)" fill="#765af7"/>
          </g>
          <g id="Groupe_174" data-name="Groupe 174" transform="translate(128.509 23.152)">
            <path id="Tracé_156" data-name="Tracé 156" d="M-60.022,2547.386h-32.3a.937.937,0,0,1-.937-.938.937.937,0,0,1,.937-.937h32.3a.937.937,0,0,1,.937.937A.938.938,0,0,1-60.022,2547.386Z" transform="translate(93.26 -2545.511)" fill="#faf44a"/>
          </g>
          <g id="Groupe_175" data-name="Groupe 175" transform="translate(128.509 29.197)">
            <path id="Tracé_157" data-name="Tracé 157" d="M-85.094,2554.8h-7.229a.937.937,0,0,1-.937-.937.937.937,0,0,1,.937-.938h7.229a.938.938,0,0,1,.938.938A.938.938,0,0,1-85.094,2554.8Z" transform="translate(93.26 -2552.923)" fill="#f60000"/>
          </g>
          <g id="Groupe_176" data-name="Groupe 176" transform="translate(39.356 35.242)">
            <path id="Tracé_158" data-name="Tracé 158" d="M-182.808,2562.21h-18.821a.938.938,0,0,1-.937-.937.938.938,0,0,1,.937-.938h18.821a.938.938,0,0,1,.937.938A.938.938,0,0,1-182.808,2562.21Z" transform="translate(202.566 -2560.335)" fill="#faf44a"/>
          </g>
          <g id="Groupe_177" data-name="Groupe 177" transform="translate(128.509 35.242)">
            <path id="Tracé_159" data-name="Tracé 159" d="M-85.094,2562.21h-7.229a.937.937,0,0,1-.937-.937.938.938,0,0,1,.937-.938h7.229a.938.938,0,0,1,.938.938A.938.938,0,0,1-85.094,2562.21Z" transform="translate(93.26 -2560.335)" fill="#faf44a"/>
          </g>
          <g id="Groupe_178" data-name="Groupe 178" transform="translate(142.447 11.06)">
            <path id="Tracé_160" data-name="Tracé 160" d="M-56.871,2532.562H-75.233a.939.939,0,0,1-.938-.938.938.938,0,0,1,.938-.937h18.362a.938.938,0,0,1,.937.937A.938.938,0,0,1-56.871,2532.562Z" transform="translate(76.171 -2530.686)" fill="#1d15aa"/>
          </g>
          <g id="Groupe_179" data-name="Groupe 179" transform="translate(142.447 17.105)">
            <path id="Tracé_161" data-name="Tracé 161" d="M-56.871,2539.973H-75.233a.938.938,0,0,1-.938-.938.938.938,0,0,1,.938-.937h18.362a.938.938,0,0,1,.937.937A.938.938,0,0,1-56.871,2539.973Z" transform="translate(76.171 -2538.098)" fill="#f60000"/>
          </g>
          <g id="Groupe_180" data-name="Groupe 180" transform="translate(142.447 29.197)">
            <path id="Tracé_162" data-name="Tracé 162" d="M-56.871,2554.8H-75.233a.938.938,0,0,1-.938-.937.938.938,0,0,1,.938-.938h18.362a.938.938,0,0,1,.937.938A.938.938,0,0,1-56.871,2554.8Z" transform="translate(76.171 -2552.923)" fill="#faf44a"/>
          </g>
          <g id="Groupe_181" data-name="Groupe 181" transform="translate(142.447 35.242)">
            <path id="Tracé_163" data-name="Tracé 163" d="M-56.871,2562.21H-75.233a.938.938,0,0,1-.938-.937.938.938,0,0,1,.938-.938h18.362a.938.938,0,0,1,.937.938A.938.938,0,0,1-56.871,2562.21Z" transform="translate(76.171 -2560.335)" fill="#ff09d6"/>
          </g>
          <g id="Groupe_182" data-name="Groupe 182" transform="translate(39.356 77.571)">
            <path id="Tracé_164" data-name="Tracé 164" d="M-183.267,2614.107h-18.362a.938.938,0,0,1-.937-.938.937.937,0,0,1,.937-.937h18.362a.937.937,0,0,1,.937.937A.937.937,0,0,1-183.267,2614.107Z" transform="translate(202.566 -2612.232)" fill="#1d15aa"/>
          </g>
          <g id="Groupe_183" data-name="Groupe 183" transform="translate(64.427 77.571)">
            <path id="Tracé_165" data-name="Tracé 165" d="M-159.95,2614.107h-10.94a.938.938,0,0,1-.938-.938.937.937,0,0,1,.938-.937h10.94a.937.937,0,0,1,.937.937A.937.937,0,0,1-159.95,2614.107Z" transform="translate(171.828 -2612.232)" fill="#f60000"/>
          </g>
          <g id="Groupe_184" data-name="Groupe 184" transform="translate(103.436 59.433)">
            <path id="Tracé_166" data-name="Tracé 166" d="M-104.7,2591.869h-18.362a.937.937,0,0,1-.938-.937.938.938,0,0,1,.938-.938H-104.7a.938.938,0,0,1,.938.938A.937.937,0,0,1-104.7,2591.869Z" transform="translate(124 -2589.994)" fill="#645cf7"/>
          </g>
          <g id="Groupe_185" data-name="Groupe 185" transform="translate(128.509 53.388)">
            <path id="Tracé_167" data-name="Tracé 167" d="M-85.094,2584.458h-7.229a.937.937,0,0,1-.937-.937.937.937,0,0,1,.937-.938h7.229a.938.938,0,0,1,.938.938A.937.937,0,0,1-85.094,2584.458Z" transform="translate(93.26 -2582.582)" fill="#15f8a2"/>
          </g>
          <g id="Groupe_186" data-name="Groupe 186" transform="translate(128.509 59.433)">
            <path id="Tracé_168" data-name="Tracé 168" d="M-85.094,2591.869h-7.229a.937.937,0,0,1-.937-.937.937.937,0,0,1,.937-.938h7.229a.938.938,0,0,1,.938.938A.937.937,0,0,1-85.094,2591.869Z" transform="translate(93.26 -2589.994)" fill="#765af7"/>
          </g>
          <g id="Groupe_187" data-name="Groupe 187" transform="translate(128.509 77.571)">
            <path id="Tracé_169" data-name="Tracé 169" d="M-85.094,2614.107h-7.229a.937.937,0,0,1-.937-.938.937.937,0,0,1,.937-.937h7.229a.937.937,0,0,1,.938.937A.938.938,0,0,1-85.094,2614.107Z" transform="translate(93.26 -2612.232)" fill="#faf44a"/>
          </g>
          <g id="Groupe_188" data-name="Groupe 188" transform="translate(142.447 53.388)">
            <path id="Tracé_170" data-name="Tracé 170" d="M-56.871,2584.458H-75.233a.937.937,0,0,1-.938-.937.938.938,0,0,1,.938-.938h18.362a.938.938,0,0,1,.937.938A.937.937,0,0,1-56.871,2584.458Z" transform="translate(76.171 -2582.582)" fill="#faf44a"/>
          </g>
          <g id="Groupe_189" data-name="Groupe 189" transform="translate(142.447 59.433)">
            <path id="Tracé_171" data-name="Tracé 171" d="M-56.871,2591.869H-75.233a.937.937,0,0,1-.938-.937.938.938,0,0,1,.938-.938h18.362a.938.938,0,0,1,.937.938A.937.937,0,0,1-56.871,2591.869Z" transform="translate(76.171 -2589.994)" fill="#15f8a2"/>
          </g>
          <g id="Groupe_190" data-name="Groupe 190" transform="translate(142.447 77.571)">
            <path id="Tracé_172" data-name="Tracé 172" d="M-56.871,2614.107H-75.233a.938.938,0,0,1-.938-.938.937.937,0,0,1,.938-.937h18.362a.937.937,0,0,1,.937.937A.938.938,0,0,1-56.871,2614.107Z" transform="translate(76.171 -2612.232)" fill="#1d15aa"/>
          </g>
          <g id="Groupe_191" data-name="Groupe 191" transform="translate(103.436 89.662)">
            <path id="Tracé_173" data-name="Tracé 173" d="M-90.762,2628.931h-32.3a.938.938,0,0,1-.938-.938.938.938,0,0,1,.938-.937h32.3a.938.938,0,0,1,.938.937A.938.938,0,0,1-90.762,2628.931Z" transform="translate(124 -2627.056)" fill="#1afbe5"/>
          </g>
          <g id="Groupe_192" data-name="Groupe 192" transform="translate(128.509 83.616)">
            <path id="Tracé_174" data-name="Tracé 174" d="M-60.022,2621.52h-32.3a.938.938,0,0,1-.937-.938.937.937,0,0,1,.937-.937h32.3a.938.938,0,0,1,.937.937A.938.938,0,0,1-60.022,2621.52Z" transform="translate(93.26 -2619.644)" fill="#15f8a2"/>
          </g>
          <g id="Groupe_193" data-name="Groupe 193" transform="translate(64.427 83.616)">
            <path id="Tracé_175" data-name="Tracé 175" d="M-113.518,2621.52H-170.89a.938.938,0,0,1-.938-.938.938.938,0,0,1,.938-.937h57.372a.938.938,0,0,1,.938.937A.938.938,0,0,1-113.518,2621.52Z" transform="translate(171.828 -2619.644)" fill="#645cf7"/>
          </g>
          <g id="Groupe_194" data-name="Groupe 194" transform="translate(82.077 89.662)">
            <path id="Tracé_176" data-name="Tracé 176" d="M-134.6,2628.931h-14.651a.938.938,0,0,1-.937-.938.938.938,0,0,1,.937-.937H-134.6a.938.938,0,0,1,.938.937A.938.938,0,0,1-134.6,2628.931Z" transform="translate(150.188 -2627.056)" fill="#f60000"/>
          </g>
          <g id="Groupe_195" data-name="Groupe 195" transform="translate(39.356 41.288)">
            <path id="Tracé_177" data-name="Tracé 177" d="M-164.976,2569.622h-36.653a.937.937,0,0,1-.937-.937.938.938,0,0,1,.937-.938h36.653a.937.937,0,0,1,.937.938A.937.937,0,0,1-164.976,2569.622Z" transform="translate(202.566 -2567.747)" fill="#1afbe5"/>
          </g>
        </g>
      </g>
    </g>
    <g id="Groupe_199" data-name="Groupe 199" transform="translate(-234.276 2503.369)">
      <path id="Tracé_179" data-name="Tracé 179" d="M-195.965,2579.99a38.354,38.354,0,0,1-38.311-38.311,38.354,38.354,0,0,1,38.311-38.311,38.354,38.354,0,0,1,38.31,38.311A38.354,38.354,0,0,1-195.965,2579.99Zm0-74.99a36.721,36.721,0,0,0-36.679,36.679,36.721,36.721,0,0,0,36.679,36.679,36.721,36.721,0,0,0,36.679-36.679A36.72,36.72,0,0,0-195.965,2505Z" transform="translate(234.276 -2503.369)" fill="#faf44a"/>
    </g>
  </g>
</svg>
