<svg xmlns="http://www.w3.org/2000/svg" width="160.779" height="121.807"><defs><clipPath id="a"><path data-name="Tracé 178" d="M-195.781 2579.36a37.537 37.537 0 0 1-37.5-37.5 37.538 37.538 0 0 1 37.5-37.5 37.537 37.537 0 0 1 37.494 37.5 37.537 37.537 0 0 1-37.494 37.5z" transform="translate(233.276 -2504.369)" fill="none"/></clipPath></defs><g data-name="Groupe 200"><g data-name="Groupe 147"><g data-name="Groupe 106"><g data-name="Groupe 105"><g data-name="Groupe 104"><g data-name="Groupe 102"><path data-name="Tracé 93" d="M160.727 110.674c0-.016-.009-.031-.014-.046a.957.957 0 0 0-.06-.122 1.2 1.2 0 0 0-.391-.491l-21.45-11.939a1.213 1.213 0 0 0-.71-.228h-1.267a1.66 1.66 0 0 0 1.66-1.661v-70.7a1.66 1.66 0 0 0-1.66-1.66H26.015a1.66 1.66 0 0 0-1.66 1.66v70.7a1.66 1.66 0 0 0 1.66 1.661h-1.294a1.21 1.21 0 0 0-.671.2L5.959 109.987a1.175 1.175 0 0 0-.5.7.945.945 0 0 0-.046.278v9.889a.949.949 0 0 0 .949.949h153.467a.949.949 0 0 0 .949-.949v-9.889a.93.93 0 0 0-.051-.291z" fill="#fbfafa"/></g><g data-name="Groupe 103"><path data-name="Rectangle 380" fill="#1a1e31" d="M28.71 28.352h105.43v64.965H28.71z"/></g></g></g></g><g data-name="Groupe 107"><path data-name="Tracé 94" d="M125.628 78.376H82.986a.7.7 0 0 1-.7-.7.7.7 0 0 1 .7-.7h42.642a.7.7 0 0 1 .7.7.7.7 0 0 1-.7.7z" fill="#1afbe5"/></g><g data-name="Groupe 108"><path data-name="Tracé 95" d="M125.628 60.394h-24.007a.7.7 0 0 1-.7-.7.7.7 0 0 1 .7-.7h24.007a.7.7 0 0 1 .7.7.7.7 0 0 1-.7.7z" fill="#ff09d6"/></g><g data-name="Groupe 109"><path data-name="Tracé 96" d="M96.635 82.869H67.111a.7.7 0 0 1-.7-.7.7.7 0 0 1 .7-.7h29.524a.7.7 0 0 1 .7.7.7.7 0 0 1-.7.7z" fill="#ff09d6"/></g><g data-name="Groupe 110"><path data-name="Tracé 97" d="M78.001 78.376H53.993a.7.7 0 0 1-.7-.7.7.7 0 0 1 .7-.7h24.008a.7.7 0 0 1 .7.7.7.7 0 0 1-.7.7z" fill="#1d15aa"/></g><g data-name="Groupe 111"><path data-name="Tracé 98" d="M96.635 73.882H67.111a.7.7 0 0 1-.7-.7.7.7 0 0 1 .7-.7h29.524a.7.7 0 0 1 .7.7.7.7 0 0 1-.7.7z" fill="#faf44a"/></g><g data-name="Groupe 112"><path data-name="Tracé 99" d="M96.635 51.41H53.993a.7.7 0 0 1-.7-.7.7.7 0 0 1 .7-.7h42.642a.7.7 0 0 1 .7.7.7.7 0 0 1-.7.7z" fill="#15f8a2"/></g><g data-name="Groupe 113"><path data-name="Tracé 100" d="M62.125 42.423H35.359a.7.7 0 0 1-.7-.7.7.7 0 0 1 .7-.7h26.766a.7.7 0 0 1 .7.7.7.7 0 0 1-.7.7z" fill="#f60000"/></g><g data-name="Groupe 114"><path data-name="Tracé 101" d="M96.635 42.423H67.111a.7.7 0 0 1-.7-.7.7.7 0 0 1 .7-.7h29.524a.7.7 0 0 1 .7.7.7.7 0 0 1-.7.7z" fill="#1afbe5"/></g><g data-name="Groupe 115"><path data-name="Tracé 102" d="M96.635 33.435H53.993a.7.7 0 0 1-.7-.7.7.7 0 0 1 .7-.7h42.642a.7.7 0 0 1 .7.7.7.7 0 0 1-.7.7z" fill="#15f8a2"/></g><g data-name="Groupe 116"><path data-name="Tracé 103" d="M49.007 37.929H35.359a.7.7 0 0 1-.7-.7.7.7 0 0 1 .7-.7h13.648a.7.7 0 0 1 .7.7.7.7 0 0 1-.7.7z" fill="#645cf7"/></g><g data-name="Groupe 117"><path data-name="Tracé 104" d="M49.007 46.916H35.359a.7.7 0 0 1-.7-.7.7.7 0 0 1 .7-.7h13.648a.7.7 0 0 1 .7.7.7.7 0 0 1-.7.7z" fill="#ff09d6"/></g><g data-name="Groupe 118"><path data-name="Tracé 105" d="M62.128 37.929h-8.132a.7.7 0 0 1-.7-.7.7.7 0 0 1 .7-.7h8.132a.7.7 0 0 1 .7.7.7.7 0 0 1-.7.7z" fill="#faf44a"/></g><g data-name="Groupe 119"><path data-name="Tracé 106" d="M78.001 46.916H53.993a.7.7 0 0 1-.7-.7.7.7 0 0 1 .7-.7h24.008a.7.7 0 0 1 .7.7.7.7 0 0 1-.7.7z" fill="#645cf7"/></g><g data-name="Groupe 120"><path data-name="Tracé 107" d="M78.001 37.929h-10.89a.7.7 0 0 1-.7-.7.7.7 0 0 1 .7-.7h10.89a.7.7 0 0 1 .7.7.7.7 0 0 1-.7.7z" fill="#ff09d6"/></g><g data-name="Groupe 121"><path data-name="Tracé 108" d="M106.995 55.903H67.111a.7.7 0 0 1-.7-.7.7.7 0 0 1 .7-.7h39.884a.7.7 0 0 1 .7.7.7.7 0 0 1-.7.7z" fill="#faf44a"/></g><g data-name="Groupe 122"><path data-name="Tracé 109" d="M96.634 37.929H82.986a.7.7 0 0 1-.7-.7.7.7 0 0 1 .7-.7h13.648a.7.7 0 0 1 .7.7.7.7 0 0 1-.7.7z" fill="#faf44a"/></g><g data-name="Groupe 123"><path data-name="Tracé 110" d="M96.634 46.916H82.986a.7.7 0 0 1-.7-.7.7.7 0 0 1 .7-.7h13.648a.7.7 0 0 1 .7.7.7.7 0 0 1-.7.7z" fill="#1d15aa"/></g><g data-name="Groupe 124"><path data-name="Tracé 111" d="M96.634 60.394H82.986a.7.7 0 0 1-.7-.7.7.7 0 0 1 .7-.7h13.648a.7.7 0 0 1 .7.7.7.7 0 0 1-.7.7z" fill="#1d15aa"/></g><g data-name="Groupe 125"><path data-name="Tracé 112" d="M106.995 33.435h-5.373a.7.7 0 0 1-.7-.7.7.7 0 0 1 .7-.7h5.373a.7.7 0 0 1 .7.7.7.7 0 0 1-.7.7z" fill="#1d15aa"/></g><g data-name="Groupe 126"><path data-name="Tracé 113" d="M106.995 37.929h-5.373a.7.7 0 0 1-.7-.7.7.7 0 0 1 .7-.7h5.373a.7.7 0 0 1 .7.7.7.7 0 0 1-.7.7z" fill="#765af7"/></g><g data-name="Groupe 127"><path data-name="Tracé 114" d="M125.628 42.423h-24.007a.7.7 0 0 1-.7-.7.7.7 0 0 1 .7-.7h24.007a.7.7 0 0 1 .7.7.7.7 0 0 1-.7.7z" fill="#faf44a"/></g><g data-name="Groupe 128"><path data-name="Tracé 115" d="M106.995 46.916h-5.373a.7.7 0 0 1-.7-.7.7.7 0 0 1 .7-.7h5.373a.7.7 0 0 1 .7.7.7.7 0 0 1-.7.7z" fill="#f60000"/></g><g data-name="Groupe 129"><path data-name="Tracé 116" d="M106.995 51.41h-5.373a.7.7 0 0 1-.7-.7.7.7 0 0 1 .7-.7h5.373a.7.7 0 0 1 .7.7.7.7 0 0 1-.7.7z" fill="#faf44a"/></g><g data-name="Groupe 130"><path data-name="Tracé 117" d="M125.628 33.435H111.98a.7.7 0 0 1-.7-.7.7.7 0 0 1 .7-.7h13.648a.7.7 0 0 1 .7.7.7.7 0 0 1-.7.7z" fill="#1d15aa"/></g><g data-name="Groupe 131"><path data-name="Tracé 118" d="M125.628 37.929H111.98a.7.7 0 0 1-.7-.7.7.7 0 0 1 .7-.7h13.648a.7.7 0 0 1 .7.7.7.7 0 0 1-.7.7z" fill="#f60000"/></g><g data-name="Groupe 132"><path data-name="Tracé 119" d="M125.628 46.916H111.98a.7.7 0 0 1-.7-.7.7.7 0 0 1 .7-.7h13.648a.7.7 0 0 1 .7.7.7.7 0 0 1-.7.7z" fill="#faf44a"/></g><g data-name="Groupe 133"><path data-name="Tracé 120" d="M125.628 51.41H111.98a.7.7 0 0 1-.7-.7.7.7 0 0 1 .7-.7h13.648a.7.7 0 0 1 .7.7.7.7 0 0 1-.7.7z" fill="#ff09d6"/></g><g data-name="Groupe 134"><path data-name="Tracé 121" d="M49.007 82.869H35.359a.7.7 0 0 1-.7-.7.7.7 0 0 1 .7-.7h13.648a.7.7 0 0 1 .7.7.7.7 0 0 1-.7.7z" fill="#1d15aa"/></g><g data-name="Groupe 135"><path data-name="Tracé 122" d="M62.128 82.869h-8.132a.7.7 0 0 1-.7-.7.7.7 0 0 1 .7-.7h8.132a.7.7 0 0 1 .7.7.7.7 0 0 1-.7.7z" fill="#f60000"/></g><g data-name="Groupe 136"><path data-name="Tracé 123" d="M96.634 69.389H82.986a.7.7 0 0 1-.7-.7.7.7 0 0 1 .7-.7h13.648a.7.7 0 0 1 .7.7.7.7 0 0 1-.7.7z" fill="#645cf7"/></g><g data-name="Groupe 137"><path data-name="Tracé 124" d="M106.995 64.895h-5.373a.7.7 0 0 1-.7-.7.7.7 0 0 1 .7-.7h5.373a.7.7 0 0 1 .7.7.7.7 0 0 1-.7.7z" fill="#15f8a2"/></g><g data-name="Groupe 138"><path data-name="Tracé 125" d="M106.995 69.389h-5.373a.7.7 0 0 1-.7-.7.7.7 0 0 1 .7-.7h5.373a.7.7 0 0 1 .7.7.7.7 0 0 1-.7.7z" fill="#765af7"/></g><g data-name="Groupe 139"><path data-name="Tracé 126" d="M106.995 82.869h-5.373a.7.7 0 0 1-.7-.7.7.7 0 0 1 .7-.7h5.373a.7.7 0 0 1 .7.7.7.7 0 0 1-.7.7z" fill="#faf44a"/></g><g data-name="Groupe 140"><path data-name="Tracé 127" d="M125.628 64.895H111.98a.7.7 0 0 1-.7-.7.7.7 0 0 1 .7-.7h13.648a.7.7 0 0 1 .7.7.7.7 0 0 1-.7.7z" fill="#faf44a"/></g><g data-name="Groupe 141"><path data-name="Tracé 128" d="M125.628 69.389H111.98a.7.7 0 0 1-.7-.7.7.7 0 0 1 .7-.7h13.648a.7.7 0 0 1 .7.7.7.7 0 0 1-.7.7z" fill="#15f8a2"/></g><g data-name="Groupe 142"><path data-name="Tracé 129" d="M125.628 82.869H111.98a.7.7 0 0 1-.7-.7.7.7 0 0 1 .7-.7h13.648a.7.7 0 0 1 .7.7.7.7 0 0 1-.7.7z" fill="#1d15aa"/></g><g data-name="Groupe 143"><path data-name="Tracé 130" d="M106.994 91.857H82.986a.7.7 0 0 1-.7-.7.7.7 0 0 1 .7-.7h24.008a.7.7 0 0 1 .7.7.7.7 0 0 1-.7.7z" fill="#1afbe5"/></g><g data-name="Groupe 144"><path data-name="Tracé 131" d="M125.628 87.363h-24.007a.7.7 0 0 1-.7-.7.7.7 0 0 1 .7-.7h24.007a.7.7 0 0 1 .7.7.7.7 0 0 1-.7.7z" fill="#15f8a2"/></g><g data-name="Groupe 145"><path data-name="Tracé 132" d="M96.635 87.363H53.993a.7.7 0 0 1-.7-.7.7.7 0 0 1 .7-.7h42.642a.7.7 0 0 1 .7.7.7.7 0 0 1-.7.7z" fill="#645cf7"/></g><g data-name="Groupe 146"><path data-name="Tracé 133" d="M78.001 91.857h-10.89a.7.7 0 0 1-.7-.7.7.7 0 0 1 .7-.7h10.89a.7.7 0 0 1 .7.7.7.7 0 0 1-.7.7z" fill="#f60000"/></g></g><g data-name="Groupe 198"><g data-name="Groupe 197" clip-path="url(#a)" transform="translate(.816 .815)"><g data-name="Groupe 196"><g data-name="Groupe 152"><g data-name="Groupe 151"><g data-name="Groupe 150"><g data-name="Groupe 148"><path data-name="Tracé 134" d="M194.662 127.261l-.02-.06a1.157 1.157 0 0 0-.08-.165 1.583 1.583 0 0 0-.526-.661l-28.86-16.064a1.641 1.641 0 0 0-.956-.307h-1.71a2.234 2.234 0 0 0 2.234-2.233V12.64a2.234 2.234 0 0 0-2.234-2.235H13.41a2.234 2.234 0 0 0-2.234 2.233v95.131a2.234 2.234 0 0 0 2.234 2.233h-1.741a1.636 1.636 0 0 0-.9.271l-24.34 16.064a1.584 1.584 0 0 0-.675.946 1.259 1.259 0 0 0-.062.374v.015a.19.19 0 0 0 0 .021v13.269a1.277 1.277 0 0 0 1.277 1.277h206.485a1.278 1.278 0 0 0 1.278-1.277v-13.305a1.28 1.28 0 0 0-.07-.396z" fill="#fbfafa"/></g><g data-name="Groupe 149"><path data-name="Rectangle 381" fill="#1a1e31" d="M17.039 16.5H158.89v87.408H17.039z"/></g></g></g></g><g data-name="Groupe 153"><path data-name="Tracé 135" d="M147.439 83.804H90.066a.937.937 0 0 1-.938-.937.937.937 0 0 1 .938-.937h57.373a.937.937 0 0 1 .937.937.937.937 0 0 1-.937.937z" fill="#1afbe5"/></g><g data-name="Groupe 154"><path data-name="Tracé 136" d="M147.439 59.614h-32.3a.937.937 0 0 1-.937-.937.937.937 0 0 1 .937-.938h32.3a.938.938 0 0 1 .937.938.937.937 0 0 1-.937.937z" fill="#ff09d6"/></g><g data-name="Groupe 155"><path data-name="Tracé 137" d="M108.429 89.851H68.706a.938.938 0 0 1-.937-.938.937.937 0 0 1 .937-.937h39.723a.937.937 0 0 1 .938.937.938.938 0 0 1-.938.938z" fill="#ff09d6"/></g><g data-name="Groupe 156"><path data-name="Tracé 138" d="M83.357 83.804h-32.3a.937.937 0 0 1-.938-.937.937.937 0 0 1 .938-.937h32.3a.937.937 0 0 1 .938.937.937.937 0 0 1-.938.937z" fill="#1d15aa"/></g><g data-name="Groupe 157"><path data-name="Tracé 139" d="M108.429 77.759H68.706a.937.937 0 0 1-.937-.937.937.937 0 0 1 .937-.937h39.723a.938.938 0 0 1 .938.937.938.938 0 0 1-.938.937z" fill="#faf44a"/></g><g data-name="Groupe 158"><path data-name="Tracé 140" d="M108.429 47.522H51.057a.938.938 0 0 1-.938-.937.938.938 0 0 1 .938-.938h57.372a.938.938 0 0 1 .938.938.938.938 0 0 1-.938.937z" fill="#15f8a2"/></g><g data-name="Groupe 159"><path data-name="Tracé 141" d="M61.997 35.432H25.986a.938.938 0 0 1-.937-.938.937.937 0 0 1 .937-.937h36.011a.937.937 0 0 1 .937.937.937.937 0 0 1-.937.938z" fill="#f60000"/></g><g data-name="Groupe 160"><path data-name="Tracé 142" d="M108.429 35.432H68.706a.938.938 0 0 1-.937-.938.937.937 0 0 1 .937-.937h39.723a.938.938 0 0 1 .938.937.938.938 0 0 1-.938.938z" fill="#1afbe5"/></g><g data-name="Groupe 161"><path data-name="Tracé 143" d="M108.429 23.341H51.057a.939.939 0 0 1-.938-.938.938.938 0 0 1 .938-.937h57.372a.938.938 0 0 1 .938.937.939.939 0 0 1-.938.938z" fill="#15f8a2"/></g><g data-name="Groupe 162"><path data-name="Tracé 144" d="M44.347 29.385H25.985a.938.938 0 0 1-.937-.938.938.938 0 0 1 .937-.937h18.362a.937.937 0 0 1 .937.937.937.937 0 0 1-.937.938z" fill="#645cf7"/></g><g data-name="Groupe 163"><path data-name="Tracé 145" d="M44.347 41.479H25.985a.938.938 0 0 1-.937-.937.938.938 0 0 1 .937-.938h18.362a.937.937 0 0 1 .937.938.937.937 0 0 1-.937.937z" fill="#ff09d6"/></g><g data-name="Groupe 164"><path data-name="Tracé 146" d="M83.104 59.614H51.057a.937.937 0 0 1-.938-.937.938.938 0 0 1 .938-.938h32.048a.938.938 0 0 1 .937.938.937.937 0 0 1-.938.937z" fill="#ff09d6"/></g><g data-name="Groupe 165"><path data-name="Tracé 147" d="M61.997 29.385h-10.94a.938.938 0 0 1-.938-.938.938.938 0 0 1 .938-.937h10.94a.937.937 0 0 1 .937.937.937.937 0 0 1-.937.938z" fill="#faf44a"/></g><g data-name="Groupe 166"><path data-name="Tracé 148" d="M83.357 41.479h-32.3a.938.938 0 0 1-.938-.937.938.938 0 0 1 .938-.938h32.3a.938.938 0 0 1 .938.938.938.938 0 0 1-.938.937z" fill="#1d15aa"/></g><g data-name="Groupe 167"><path data-name="Tracé 149" d="M83.357 29.385H68.706a.938.938 0 0 1-.937-.938.938.938 0 0 1 .937-.937h14.651a.938.938 0 0 1 .938.937.938.938 0 0 1-.938.938z" fill="#ff09d6"/></g><g data-name="Groupe 168"><path data-name="Tracé 150" d="M122.367 53.568H68.706a.937.937 0 0 1-.937-.937.938.938 0 0 1 .937-.938h53.661a.938.938 0 0 1 .938.938.937.937 0 0 1-.938.937z" fill="#faf44a"/></g><g data-name="Groupe 169"><path data-name="Tracé 151" d="M108.428 29.385H90.066a.938.938 0 0 1-.938-.938.938.938 0 0 1 .938-.937h18.362a.938.938 0 0 1 .938.937.938.938 0 0 1-.938.938z" fill="#faf44a"/></g><g data-name="Groupe 170"><path data-name="Tracé 152" d="M108.428 41.479H90.066a.938.938 0 0 1-.938-.937.938.938 0 0 1 .938-.938h18.362a.938.938 0 0 1 .938.938.938.938 0 0 1-.938.937z" fill="#1d15aa"/></g><g data-name="Groupe 171"><path data-name="Tracé 153" d="M108.428 59.614H90.066a.937.937 0 0 1-.938-.937.938.938 0 0 1 .938-.938h18.362a.938.938 0 0 1 .938.938.937.937 0 0 1-.938.937z" fill="#1d15aa"/></g><g data-name="Groupe 172"><path data-name="Tracé 154" d="M122.367 23.341h-7.229a.938.938 0 0 1-.937-.938.937.937 0 0 1 .937-.937h7.229a.938.938 0 0 1 .938.937.939.939 0 0 1-.938.938z" fill="#1d15aa"/></g><g data-name="Groupe 173"><path data-name="Tracé 155" d="M122.367 29.385h-7.229a.937.937 0 0 1-.937-.938.937.937 0 0 1 .937-.937h7.229a.938.938 0 0 1 .938.937.938.938 0 0 1-.938.938z" fill="#765af7"/></g><g data-name="Groupe 174"><path data-name="Tracé 156" d="M147.439 35.432h-32.3a.937.937 0 0 1-.937-.938.937.937 0 0 1 .937-.937h32.3a.937.937 0 0 1 .937.937.938.938 0 0 1-.937.938z" fill="#faf44a"/></g><g data-name="Groupe 175"><path data-name="Tracé 157" d="M122.367 41.479h-7.229a.937.937 0 0 1-.937-.937.937.937 0 0 1 .937-.938h7.229a.938.938 0 0 1 .938.938.938.938 0 0 1-.938.937z" fill="#f60000"/></g><g data-name="Groupe 176"><path data-name="Tracé 158" d="M44.806 47.522H25.985a.938.938 0 0 1-.937-.937.938.938 0 0 1 .937-.938h18.821a.938.938 0 0 1 .937.938.938.938 0 0 1-.937.937z" fill="#faf44a"/></g><g data-name="Groupe 177"><path data-name="Tracé 159" d="M122.367 47.522h-7.229a.937.937 0 0 1-.937-.937.938.938 0 0 1 .937-.938h7.229a.938.938 0 0 1 .938.938.938.938 0 0 1-.938.937z" fill="#faf44a"/></g><g data-name="Groupe 178"><path data-name="Tracé 160" d="M147.439 23.341h-18.362a.939.939 0 0 1-.938-.938.938.938 0 0 1 .938-.937h18.362a.938.938 0 0 1 .937.937.938.938 0 0 1-.937.938z" fill="#1d15aa"/></g><g data-name="Groupe 179"><path data-name="Tracé 161" d="M147.439 29.385h-18.362a.938.938 0 0 1-.938-.938.938.938 0 0 1 .938-.937h18.362a.938.938 0 0 1 .937.937.938.938 0 0 1-.937.938z" fill="#f60000"/></g><g data-name="Groupe 180"><path data-name="Tracé 162" d="M147.439 41.479h-18.362a.938.938 0 0 1-.938-.937.938.938 0 0 1 .938-.938h18.362a.938.938 0 0 1 .937.938.938.938 0 0 1-.937.937z" fill="#faf44a"/></g><g data-name="Groupe 181"><path data-name="Tracé 163" d="M147.439 47.522h-18.362a.938.938 0 0 1-.938-.937.938.938 0 0 1 .938-.938h18.362a.938.938 0 0 1 .937.938.938.938 0 0 1-.937.937z" fill="#ff09d6"/></g><g data-name="Groupe 182"><path data-name="Tracé 164" d="M44.347 89.851H25.985a.938.938 0 0 1-.937-.938.937.937 0 0 1 .937-.937h18.362a.937.937 0 0 1 .937.937.937.937 0 0 1-.937.938z" fill="#1d15aa"/></g><g data-name="Groupe 183"><path data-name="Tracé 165" d="M61.997 89.851h-10.94a.938.938 0 0 1-.938-.938.937.937 0 0 1 .938-.937h10.94a.937.937 0 0 1 .937.937.937.937 0 0 1-.937.938z" fill="#f60000"/></g><g data-name="Groupe 184"><path data-name="Tracé 166" d="M108.428 71.713H90.066a.937.937 0 0 1-.938-.937.938.938 0 0 1 .938-.938h18.362a.938.938 0 0 1 .938.938.937.937 0 0 1-.938.937z" fill="#645cf7"/></g><g data-name="Groupe 185"><path data-name="Tracé 167" d="M122.367 65.669h-7.229a.937.937 0 0 1-.937-.937.937.937 0 0 1 .937-.938h7.229a.938.938 0 0 1 .938.938.937.937 0 0 1-.938.937z" fill="#15f8a2"/></g><g data-name="Groupe 186"><path data-name="Tracé 168" d="M122.367 71.713h-7.229a.937.937 0 0 1-.937-.937.937.937 0 0 1 .937-.938h7.229a.938.938 0 0 1 .938.938.937.937 0 0 1-.938.937z" fill="#765af7"/></g><g data-name="Groupe 187"><path data-name="Tracé 169" d="M122.367 89.851h-7.229a.937.937 0 0 1-.937-.938.937.937 0 0 1 .937-.937h7.229a.937.937 0 0 1 .938.937.938.938 0 0 1-.938.938z" fill="#faf44a"/></g><g data-name="Groupe 188"><path data-name="Tracé 170" d="M147.439 65.669h-18.362a.937.937 0 0 1-.938-.937.938.938 0 0 1 .938-.938h18.362a.938.938 0 0 1 .937.938.937.937 0 0 1-.937.937z" fill="#faf44a"/></g><g data-name="Groupe 189"><path data-name="Tracé 171" d="M147.439 71.713h-18.362a.937.937 0 0 1-.938-.937.938.938 0 0 1 .938-.938h18.362a.938.938 0 0 1 .937.938.937.937 0 0 1-.937.937z" fill="#15f8a2"/></g><g data-name="Groupe 190"><path data-name="Tracé 172" d="M147.439 89.851h-18.362a.938.938 0 0 1-.938-.938.937.937 0 0 1 .938-.937h18.362a.937.937 0 0 1 .937.937.938.938 0 0 1-.937.938z" fill="#1d15aa"/></g><g data-name="Groupe 191"><path data-name="Tracé 173" d="M122.366 101.942h-32.3a.938.938 0 0 1-.938-.938.938.938 0 0 1 .938-.937h32.3a.938.938 0 0 1 .938.937.938.938 0 0 1-.938.938z" fill="#1afbe5"/></g><g data-name="Groupe 192"><path data-name="Tracé 174" d="M147.439 95.897h-32.3a.938.938 0 0 1-.937-.938.937.937 0 0 1 .937-.937h32.3a.938.938 0 0 1 .937.937.938.938 0 0 1-.937.938z" fill="#15f8a2"/></g><g data-name="Groupe 193"><path data-name="Tracé 175" d="M108.429 95.897H51.057a.938.938 0 0 1-.938-.938.938.938 0 0 1 .938-.937h57.372a.938.938 0 0 1 .938.937.938.938 0 0 1-.938.938z" fill="#645cf7"/></g><g data-name="Groupe 194"><path data-name="Tracé 176" d="M83.357 101.942H68.706a.938.938 0 0 1-.937-.938.938.938 0 0 1 .937-.937h14.651a.938.938 0 0 1 .938.937.938.938 0 0 1-.938.938z" fill="#f60000"/></g><g data-name="Groupe 195"><path data-name="Tracé 177" d="M62.638 53.568H25.985a.937.937 0 0 1-.937-.937.938.938 0 0 1 .937-.938h36.653a.937.937 0 0 1 .937.938.937.937 0 0 1-.937.937z" fill="#1afbe5"/></g></g></g></g><g data-name="Groupe 199"><path data-name="Tracé 179" d="M38.311 76.621A38.354 38.354 0 0 1 0 38.31 38.354 38.354 0 0 1 38.311-.001a38.354 38.354 0 0 1 38.31 38.311 38.354 38.354 0 0 1-38.31 38.311zm0-74.99A36.721 36.721 0 0 0 1.632 38.31a36.721 36.721 0 0 0 36.679 36.679A36.721 36.721 0 0 0 74.99 38.31 36.72 36.72 0 0 0 38.311 1.631z" fill="#faf44a"/></g></g></svg>